<?xml version="1.0" encoding="UTF-8"?>
<!-- Created with Inkscape (http://www.inkscape.org/) -->
<svg width="400" height="111.85" version="1.1" viewBox="0 0 105.83 29.595" xmlns="http://www.w3.org/2000/svg" xmlns:cc="http://creativecommons.org/ns#" xmlns:dc="http://purl.org/dc/elements/1.1/" xmlns:rdf="http://www.w3.org/1999/02/22-rdf-syntax-ns#">
 <metadata>
  <rdf:RDF>
   <cc:Work rdf:about="">
    <dc:format>image/svg+xml</dc:format>
    <dc:type rdf:resource="http://purl.org/dc/dcmitype/StillImage"/>
    <dc:title/>
   </cc:Work>
  </rdf:RDF>
 </metadata>
 <g transform="translate(227.76 -53.209)">
  <g fill="#fb739b">
   <path class="cls-2" d="m-164.94 63.228-12.528-0.0308-0.0189 0.0308h-0.0165l-11.012 19.031 5.1224 0.02131 0.0118-0.02131h0.0189l3.9644-6.8725h7.5782v6.9412h4.4759v-14.965l2.4061-4.1372zm-11.955 7.815 1.9964-3.4647h3.0786v3.4694z" stroke-width=".23682"/>
   <polygon class="cls-2" transform="matrix(.23682 0 0 .23682 -226.06 -3.9643)" points="55.79 345.72 12.43 345.72 0 364.09 110.18 364.21 127.15 335.07 164.45 335.13 194.21 283.73 194.1 283.73 194.18 283.6 95.54 283.6 95.45 283.73 95.42 283.73 83.16 302.1 83.17 302.1 161.87 302.1 153.43 316.7 106.61 316.7 106.66 316.76 106.64 316.76 112.34 323.21 99.25 345.72 81.33 345.72 46.71 302.1 69.31 302.1 83.84 283.6 7.04 283.73 6.62 283.73"/>
   <path class="cls-2" d="m-123.62 63.176h-6.7991l-8.5989 7.1496v-7.1496h-23.237l-0.0284 0.0521-2.5292 4.3504h14.846l-2.0319 3.4694h-0.21076l4.1443 2.4085 4.5635-7.8837v16.184l-7.5924-6.361h1.8946l0.2084-0.35997a4.2983 4.2983 0 0 0-0.44286-0.53048s-3.2018-2.1314-5.4634-3.4623h-10.977l1.0586 1.1391v10.122h4.5256v-6.9175h2.1314l8.2058 6.9222h10.943v-6.3089l0.50443-0.42154 8.0116 6.7304h6.8678l-11.488-9.5509z" stroke-width=".23682"/>
  </g>
  <g fill="#5788ce">
   <g stroke-width=".23682">
    <path class="cls-1" d="m-195.32 56.261v-1.1107h-1.2054v1.1107h-0.39076v-2.5648h0.39076v1.0112h1.2054v-1.0112h0.38603v2.5648z"/>
    <path class="cls-1" d="m-187.57 56.261-0.19182-0.52337h-1.0941l-0.19655 0.52337h-0.4026l0.99938-2.5648h0.33628l0.97333 2.5648zm-0.73888-1.9845-0.38603 1.0278h0.76731z"/>
    <path class="cls-1" d="m-172.47 56.261h-1.2457c-0.23682 0-0.3789-0.19182-0.3789-0.49732v-1.5725c0-0.29839 0.14919-0.49495 0.3789-0.49495h1.2528c0.23683 0 0.38128 0.18709 0.38128 0.49495v0.18472l-0.39075 0.09236v-0.33155h-1.2433v1.6743h1.2315v-0.58968h-0.62757v-0.4097h1.0207v0.94728a0.44996 0.44996 0 0 1-0.37892 0.50206z"/>
    <path class="cls-1" d="m-166.6 56.261v-0.23682l1.2338-1.8946h-1.1154v-0.44522h1.743v0.21787l-1.2457 1.8946h1.2623v0.44522z"/>
    <path class="cls-1" d="m-157.64 56.261v-1.1107h-1.2054v1.1107h-0.39076v-2.5648h0.39076v1.0112h1.2054v-1.0112h0.38601v2.5648z"/>
    <path class="cls-1" d="m-150.12 56.261h-1.2646c-0.23682 0-0.37654-0.19893-0.37654-0.49732v-1.5725c0-0.31023 0.13971-0.49495 0.37654-0.49495h1.2646c0.23681 0 0.38127 0.18472 0.38127 0.49495v1.5677c0 0.29839-0.15392 0.50206-0.38127 0.50206zm0-2.1314h-1.2457v1.679h1.2457z"/>
    <path class="cls-1" d="m-142.7 56.261h-1.1604c-0.22497 0-0.3789-0.20366-0.3789-0.49732v-2.0674h0.39311v2.1195h1.132v-2.1195h0.39312v2.0627c-9e-3 0.29839-0.16577 0.50206-0.37892 0.50206z"/>
   </g>
   <polygon class="cls-1" transform="matrix(.23682 0 0 .23682 -226.06 -3.9643)" points="187.63 243.48 187.63 254.31 189.33 254.31 189.33 246.51 194.46 251.89 194.46 254.31 196.17 254.31 196.17 243.48 194.46 243.48 194.46 248.93 189.33 243.48"/>
  </g>
 </g>
</svg>
